{
    "asset" : {
        "generator" : "Khronos glTF Blender I/O v3.4.50",
        "version" : "2.0"
    },
    "extensionsUsed" : [
        "KHR_materials_specular",
        "KHR_materials_ior"
    ],
    "scene" : 0,
    "scenes" : [
        {
            "name" : "Scene",
            "nodes" : [
                0
            ]
        }
    ],
    "nodes" : [
        {
            "mesh" : 0,
            "name" : "bloodymatress",
            "rotation" : [
                0.70710688829422,
                0,
                0,
                0.7071066498756409
            ]
        }
    ],
    "materials" : [
        {
            "doubleSided" : true,
            "extensions" : {
                "KHR_materials_specular" : {
                    "specularColorFactor" : [
                        0,
                        0,
                        0
                    ]
                },
                "KHR_materials_ior" : {
                    "ior" : 1.4500000476837158
                }
            },
            "name" : "Material #128",
            "pbrMetallicRoughness" : {
                "baseColorFactor" : [
                    0.7991027235984802,
                    0.617206335067749,
                    0,
                    1
                ],
                "metallicFactor" : 0
            }
        },
        {
            "doubleSided" : true,
            "extensions" : {
                "KHR_materials_specular" : {
                    "specularColorFactor" : [
                        0,
                        0,
                        0
                    ]
                },
                "KHR_materials_ior" : {
                    "ior" : 1.4500000476837158
                }
            },
            "name" : "Material #129",
            "pbrMetallicRoughness" : {
                "baseColorFactor" : [
                    0.7991027235984802,
                    0.617206335067749,
                    0,
                    1
                ],
                "metallicFactor" : 0
            }
        },
        {
            "doubleSided" : true,
            "extensions" : {
                "KHR_materials_specular" : {
                    "specularColorFactor" : [
                        0,
                        0,
                        0
                    ]
                },
                "KHR_materials_ior" : {
                    "ior" : 1.4500000476837158
                }
            },
            "name" : "Material #127",
            "pbrMetallicRoughness" : {
                "baseColorFactor" : [
                    0.7991027235984802,
                    0.617206335067749,
                    0,
                    1
                ],
                "metallicFactor" : 0
            }
        }
    ],
    "meshes" : [
        {
            "name" : "bloodymatress",
            "primitives" : [
                {
                    "attributes" : {
                        "POSITION" : 0,
                        "TEXCOORD_0" : 1,
                        "NORMAL" : 2
                    },
                    "indices" : 3,
                    "material" : 0
                },
                {
                    "attributes" : {
                        "POSITION" : 4,
                        "TEXCOORD_0" : 5,
                        "NORMAL" : 6
                    },
                    "indices" : 7,
                    "material" : 1
                },
                {
                    "attributes" : {
                        "POSITION" : 8,
                        "TEXCOORD_0" : 9,
                        "NORMAL" : 10
                    },
                    "indices" : 11,
                    "material" : 2
                }
            ]
        }
    ],
    "accessors" : [
        {
            "bufferView" : 0,
            "componentType" : 5126,
            "count" : 4080,
            "max" : [
                -542.5861206054688,
                13.580570220947266,
                -1853.054931640625
            ],
            "min" : [
                -722.9373168945312,
                9.57972526550293,
                -2145.21826171875
            ],
            "type" : "VEC3"
        },
        {
            "bufferView" : 1,
            "componentType" : 5126,
            "count" : 4080,
            "type" : "VEC2"
        },
        {
            "bufferView" : 2,
            "componentType" : 5126,
            "count" : 4080,
            "type" : "VEC3"
        },
        {
            "bufferView" : 3,
            "componentType" : 5123,
            "count" : 4080,
            "type" : "SCALAR"
        },
        {
            "bufferView" : 4,
            "componentType" : 5126,
            "count" : 21360,
            "max" : [
                -543.5609130859375,
                43.068668365478516,
                -1854.6143798828125
            ],
            "min" : [
                -721.9539794921875,
                -7.816274642944336,
                -2143.7021484375
            ],
            "type" : "VEC3"
        },
        {
            "bufferView" : 5,
            "componentType" : 5126,
            "count" : 21360,
            "type" : "VEC2"
        },
        {
            "bufferView" : 6,
            "componentType" : 5126,
            "count" : 21360,
            "type" : "VEC3"
        },
        {
            "bufferView" : 7,
            "componentType" : 5123,
            "count" : 21360,
            "type" : "SCALAR"
        },
        {
            "bufferView" : 8,
            "componentType" : 5126,
            "count" : 3840,
            "max" : [
                -542.3790283203125,
                32.50958251953125,
                -1853.4566650390625
            ],
            "min" : [
                -723.1339111328125,
                28.53489112854004,
                -2144.8740234375
            ],
            "type" : "VEC3"
        },
        {
            "bufferView" : 9,
            "componentType" : 5126,
            "count" : 3840,
            "type" : "VEC2"
        },
        {
            "bufferView" : 10,
            "componentType" : 5126,
            "count" : 3840,
            "type" : "VEC3"
        },
        {
            "bufferView" : 11,
            "componentType" : 5123,
            "count" : 3840,
            "type" : "SCALAR"
        }
    ],
    "bufferViews" : [
        {
            "buffer" : 0,
            "byteLength" : 48960,
            "byteOffset" : 0,
            "target" : 34962
        },
        {
            "buffer" : 0,
            "byteLength" : 32640,
            "byteOffset" : 48960,
            "target" : 34962
        },
        {
            "buffer" : 0,
            "byteLength" : 48960,
            "byteOffset" : 81600,
            "target" : 34962
        },
        {
            "buffer" : 0,
            "byteLength" : 8160,
            "byteOffset" : 130560,
            "target" : 34963
        },
        {
            "buffer" : 0,
            "byteLength" : 256320,
            "byteOffset" : 138720,
            "target" : 34962
        },
        {
            "buffer" : 0,
            "byteLength" : 170880,
            "byteOffset" : 395040,
            "target" : 34962
        },
        {
            "buffer" : 0,
            "byteLength" : 256320,
            "byteOffset" : 565920,
            "target" : 34962
        },
        {
            "buffer" : 0,
            "byteLength" : 42720,
            "byteOffset" : 822240,
            "target" : 34963
        },
        {
            "buffer" : 0,
            "byteLength" : 46080,
            "byteOffset" : 864960,
            "target" : 34962
        },
        {
            "buffer" : 0,
            "byteLength" : 30720,
            "byteOffset" : 911040,
            "target" : 34962
        },
        {
            "buffer" : 0,
            "byteLength" : 46080,
            "byteOffset" : 941760,
            "target" : 34962
        },
        {
            "buffer" : 0,
            "byteLength" : 7680,
            "byteOffset" : 987840,
            "target" : 34963
        }
    ],
    "buffers" : [
        {
            "byteLength" : 995520,
            "uri" : "data:application/octet-stream;base64,"
        }
    ]
}
