{
    "asset" : {
        "generator" : "Khronos glTF Blender I/O v3.4.50",
        "version" : "2.0"
    },
    "extensionsUsed" : [
        "KHR_materials_specular",
        "KHR_materials_ior"
    ],
    "scene" : 0,
    "scenes" : [
        {
            "name" : "Scene",
            "nodes" : [
                0
            ]
        }
    ],
    "nodes" : [
        {
            "mesh" : 0,
            "name" : "skull",
            "rotation" : [
                0.70710688829422,
                0,
                0,
                0.7071066498756409
            ]
        }
    ],
    "materials" : [
        {
            "doubleSided" : true,
            "extensions" : {
                "KHR_materials_specular" : {
                    "specularColorFactor" : [
                        0,
                        0,
                        0
                    ]
                },
                "KHR_materials_ior" : {
                    "ior" : 1.4500000476837158
                }
            },
            "name" : "defaultMat.001",
            "pbrMetallicRoughness" : {
                "baseColorFactor" : [
                    0.7529420256614685,
                    0.5647112131118774,
                    0.31854692101478577,
                    1
                ],
                "metallicFactor" : 0
            }
        }
    ],
    "meshes" : [
        {
            "name" : "skull.001",
            "primitives" : [
                {
                    "attributes" : {
                        "POSITION" : 0,
                        "TEXCOORD_0" : 1,
                        "NORMAL" : 2
                    },
                    "indices" : 3,
                    "material" : 0
                }
            ]
        }
    ],
    "accessors" : [
        {
            "bufferView" : 0,
            "componentType" : 5126,
            "count" : 22086,
            "max" : [
                7.54942512512207,
                10.39499282836914,
                12.176904678344727
            ],
            "min" : [
                -7.577315330505371,
                -9.522890090942383,
                -11.828564643859863
            ],
            "type" : "VEC3"
        },
        {
            "bufferView" : 1,
            "componentType" : 5126,
            "count" : 22086,
            "type" : "VEC2"
        },
        {
            "bufferView" : 2,
            "componentType" : 5126,
            "count" : 22086,
            "type" : "VEC3"
        },
        {
            "bufferView" : 3,
            "componentType" : 5123,
            "count" : 33048,
            "type" : "SCALAR"
        }
    ],
    "bufferViews" : [
        {
            "buffer" : 0,
            "byteLength" : 265032,
            "byteOffset" : 0,
            "target" : 34962
        },
        {
            "buffer" : 0,
            "byteLength" : 176688,
            "byteOffset" : 265032,
            "target" : 34962
        },
        {
            "buffer" : 0,
            "byteLength" : 265032,
            "byteOffset" : 441720,
            "target" : 34962
        },
        {
            "buffer" : 0,
            "byteLength" : 66096,
            "byteOffset" : 706752,
            "target" : 34963
        }
    ],
    "buffers" : [
        {
            "byteLength" : 772848,
            "uri" : "data:application/octet-stream;base64,"
        }
    ]
}
